# xmcd
#
# Track frame offsets: 
#        150
#        15650
#        30567
#        43495
#        59530
#        72722
#        90455
#        111087
#        125820
#        142912
#        155407
#
# Disc length: 2295 seconds
#
# Revision: 8
# Processed by: cddbd v1.5.2PL0 Copyright (c) Steve Scherf et al.
# Submitted via: ExactAudioCopy v1.1
#
DISCID=9d08f50b
DTITLE=Various Artist - Legally Blonde (Original Soundtrack)
DYEAR=2002
DGENRE=Soundtrack
TTITLE0=Hoku - Perfect Day
TTITLE1=Krystal Harris - Love Is a Beautiful Thing (Remix)
TTITLE2=Lisa Loeb - We Could Still Belong Together
TTITLE3=Samantha Mumba - Don't Need You To (Tell Me I'm Pretty)
TTITLE4=Superchic[k] - One Girl Revolution
TTITLE5=Vanessa Carlton - A Thousand Miles (Interlude)
TTITLE6=Black Eyed Peas feat. Terry Dexter - Magic
TTITLE7=Joanna Pacitti - Watch Me Shine
TTITLE8=Valeria - Ooh La La
TTITLE9=Lo-Ball - Can't Get Me Down
TTITLE10=Mya - Sex Machine
EXTD=
EXTT0=
EXTT1=
EXTT2=
EXTT3=
EXTT4=
EXTT5=
EXTT6=
EXTT7=
EXTT8=
EXTT9=
EXTT10=
PLAYORDER=
